<svg xmlns="http://www.w3.org/2000/svg" viewBox="0 0 100 100" preserveAspectRatio="xMidYMid" width="200" height="200" style="shape-rendering: auto; display: block; background: rgb(255, 255, 255);" xmlns:xlink="http://www.w3.org/1999/xlink"><g><g transform="translate(50 50)">
  <g transform="scale(0.7)">
    <g transform="translate(-50 -50)">
      <g>
        <animateTransform dur="0.7575757575757576s" keyTimes="0;1" values="0 50 50;360 50 50" repeatCount="indefinite" type="rotate" attributeName="transform"></animateTransform>
        <path d="M50 50L50 0A50 50 0 0 1 100 50Z" fill="#e15b64" fill-opacity="0.8"></path>
      </g>
      <g>
        <animateTransform dur="1.0101010101010102s" keyTimes="0;1" values="0 50 50;360 50 50" repeatCount="indefinite" type="rotate" attributeName="transform"></animateTransform>
        <path transform="rotate(90 50 50)" d="M50 50L50 0A50 50 0 0 1 100 50Z" fill="#f47e60" fill-opacity="0.8"></path>
      </g>
      <g>
        <animateTransform dur="1.5151515151515151s" keyTimes="0;1" values="0 50 50;360 50 50" repeatCount="indefinite" type="rotate" attributeName="transform"></animateTransform>
        <path transform="rotate(180 50 50)" d="M50 50L50 0A50 50 0 0 1 100 50Z" fill="#f8b26a" fill-opacity="0.8"></path>
      </g>
      <g>
        <animateTransform dur="3.0303030303030303s" keyTimes="0;1" values="0 50 50;360 50 50" repeatCount="indefinite" type="rotate" attributeName="transform"></animateTransform>
        <path transform="rotate(270 50 50)" d="M50 50L50 0A50 50 0 0 1 100 50Z" fill="#abbd81" fill-opacity="0.8"></path>
      </g>
    </g>
  </g>
</g><g></g></g><!-- [ldio] generated by https://loading.io --></svg>